<svg width="48" height="48" viewBox="0 0 48 48" fill="none" xmlns="http://www.w3.org/2000/svg">
<path d="M24 6C33.9411 6 42 14.0589 42 24C42 33.9411 33.9411 42 24 42C14.0589 42 6 33.9411 6 24C6 14.0589 14.0589 6 24 6Z" fill="#C64635"/>
<g clip-path="url(#clip0_13_1316)">
<path d="M33.1512 16.7972C32.8905 16.4268 32.575 16.0838 32.2457 15.7546C31.9164 15.4253 31.5735 15.1097 31.203 14.849C29.1588 13.2164 26.6482 12.2927 24.0003 12.2927C20.8859 12.2927 17.9637 13.5457 15.7549 15.7546C13.5461 17.9634 12.293 20.8856 12.293 24C12.293 26.6616 13.2167 29.1722 14.8494 31.2164C15.1238 31.5731 15.4256 31.916 15.7549 32.2454C16.0841 32.5747 16.4271 32.8765 16.7838 33.1509C18.828 34.7835 21.3387 35.7073 24.0003 35.7073C27.1147 35.7073 30.0369 34.4542 32.2457 32.2454C34.4546 30.0365 35.7076 27.1143 35.7076 24C35.7076 21.3521 34.7838 18.8414 33.1512 16.7972ZM15.0826 24C15.0826 21.6128 16.0155 19.3765 17.6894 17.689C19.3768 16.0152 21.6131 15.0823 24.0003 15.0823C25.9211 15.0823 27.7457 15.686 29.2549 16.7972L16.8113 29.2545C15.6863 27.7454 15.0826 25.9207 15.0826 24ZM30.3112 30.3109C28.6238 31.9847 26.3875 32.9177 24.0003 32.9177C22.0795 32.9177 20.2549 32.314 18.7457 31.189L31.203 18.7454C32.3143 20.2545 32.918 22.0792 32.918 24C32.918 26.3872 31.985 28.6235 30.3112 30.3109Z" fill="#FFA5A5"/>
<path d="M16.7838 33.1509C18.828 34.7835 21.3387 35.7073 24.0003 35.7073C27.1147 35.7073 30.0369 34.4543 32.2457 32.2454C34.4546 30.0365 35.7076 27.1143 35.7076 24C35.7076 21.3521 34.7838 18.8415 33.1512 16.7973C32.8905 16.4268 32.575 16.0838 32.2457 15.7546L15.7549 32.2454C16.0841 32.5747 16.4271 32.8765 16.7838 33.1509ZM31.2031 18.7454C32.3143 20.2545 32.918 22.0792 32.918 24C32.918 26.3872 31.9851 28.6235 30.3112 30.3109C28.6238 31.9848 26.3875 32.9177 24.0003 32.9177C22.0795 32.9177 20.2549 32.314 18.7457 31.189L31.2031 18.7454Z" fill="#FFA5A5"/>
</g>
<defs>
<clipPath id="clip0_13_1316">
<rect width="23.4146" height="23.4146" fill="white" transform="translate(12.293 12.2927)"/>
</clipPath>
</defs>
</svg>
