<svg width="36.000000" height="34.000000" viewBox="0 0 36 34" fill="none" xmlns="http://www.w3.org/2000/svg" xmlns:xlink="http://www.w3.org/1999/xlink">
	<desc>
			Created with Pixso.
	</desc>
	<defs/>
	<path id="Vector" d="M35.78 16.5C35.78 26.07 27.59 33.84 17.5 33.84C7.4 33.84 -0.79 26.07 -0.79 16.5C-0.79 6.92 7.4 -0.85 17.5 -0.85C27.59 -0.85 35.78 6.92 35.78 16.5Z" fill="#C64635" fill-opacity="1.000000" fill-rule="evenodd"/>
	<path id="Vector" d="M17.5 -0.85C12.78 -0.85 8.25 0.87 4.86 3.97C3.26 5.89 2.12 8.11 1.52 10.49C0.92 12.87 0.88 15.34 1.39 17.74C1.91 20.13 2.97 22.39 4.5 24.36C6.04 26.32 8 27.94 10.27 29.11C12.53 30.28 15.04 30.96 17.61 31.12C20.18 31.27 22.76 30.88 25.16 29.99C27.56 29.1 29.72 27.72 31.5 25.95C33.28 24.18 34.63 22.06 35.45 19.75C35.96 17.24 35.87 14.66 35.2 12.18C34.54 9.71 33.3 7.41 31.58 5.44C29.87 3.47 27.72 1.89 25.28 0.8C22.85 -0.29 20.19 -0.85 17.5 -0.85Z" fill="#C64635" fill-opacity="1.000000" fill-rule="nonzero"/>
	<path id="Vector" d="M28.8 8.63C30.47 10.8 31.41 13.39 31.5 16.07C31.59 18.75 30.83 21.39 29.31 23.66L21.15 15.92L28.8 8.63Z" fill="#F2F2F2" fill-opacity="1.000000" fill-rule="nonzero"/>
	<path id="Vector" d="M25.04 5.29C22.79 3.92 20.17 3.2 17.5 3.2C14.82 3.2 12.2 3.92 9.95 5.29L17.5 12.45L25.04 5.29Z" fill="#F2F2F2" fill-opacity="1.000000" fill-rule="nonzero"/>
	<path id="Vector" d="M5.68 23.65C4.16 21.4 3.4 18.76 3.49 16.08C3.58 13.4 4.51 10.81 6.18 8.65L13.84 15.92L5.68 23.65Z" fill="#F2F2F2" fill-opacity="1.000000" fill-rule="nonzero"/>
	<path id="Vector" d="M9.23 27.23C11.63 28.9 14.52 29.79 17.5 29.79C20.47 29.79 23.36 28.9 25.77 27.23L17.5 19.39L9.23 27.23Z" fill="#F2F2F2" fill-opacity="1.000000" fill-rule="nonzero"/>
</svg>
