<svg width="48.000000" height="48.000000" viewBox="0 0 48 48" fill="none" xmlns="http://www.w3.org/2000/svg" xmlns:xlink="http://www.w3.org/1999/xlink">
	<desc>
			Created with Pixso.
	</desc>
	<defs>
		<clipPath id="clip13_1319">
			<rect id="ban_stm1hpohuan6 1" width="23.414635" height="23.414635" transform="translate(12.292969 12.292725)" fill="white" fill-opacity="0"/>
		</clipPath>
		<clipPath id="clip13_1316">
			<rect id="approve_1kjhlbaxg1wf 2" width="48.000000" height="48.000000" fill="white" fill-opacity="0"/>
		</clipPath>
	</defs>
	<rect id="approve_1kjhlbaxg1wf 2" width="48.000000" height="48.000000" fill="#FFFFFF" fill-opacity="0"/>
	<g clip-path="url(#clip13_1316)">
		<path id="Path" d="M24 6C33.94 6 42 14.05 42 24C42 33.94 33.94 42 24 42C14.05 42 6 33.94 6 24C6 14.05 14.05 6 24 6Z" fill="#C64635" fill-opacity="1.000000" fill-rule="nonzero"/>
		<rect id="ban_stm1hpohuan6 1" width="23.414635" height="23.414635" transform="translate(12.292969 12.292725)" fill="#FFFFFF" fill-opacity="0"/>
		<g clip-path="url(#clip13_1319)">
			<path id="Vector" d="M33.15 16.79C32.89 16.42 32.57 16.08 32.24 15.75C31.91 15.42 31.57 15.1 31.2 14.84C29.15 13.21 26.64 12.29 24 12.29C20.88 12.29 17.96 13.54 15.75 15.75C13.54 17.96 12.29 20.88 12.29 24C12.29 26.66 13.21 29.17 14.84 31.21C15.12 31.57 15.42 31.91 15.75 32.24C16.08 32.57 16.42 32.87 16.78 33.15C18.82 34.78 21.33 35.7 24 35.7C27.11 35.7 30.03 34.45 32.24 32.24C34.45 30.03 35.7 27.11 35.7 24C35.7 21.35 34.78 18.84 33.15 16.79ZM15.08 24C15.08 21.61 16.01 19.37 17.68 17.68C19.37 16.01 21.61 15.08 24 15.08C25.92 15.08 27.74 15.68 29.25 16.79L16.81 29.25C15.68 27.74 15.08 25.92 15.08 24ZM30.31 30.31C28.62 31.98 26.38 32.91 24 32.91C22.07 32.91 20.25 32.31 18.74 31.18L31.2 18.74C32.31 20.25 32.91 22.07 32.91 24C32.91 26.38 31.98 28.62 30.31 30.31Z" fill="#FFA5A5" fill-opacity="1.000000" fill-rule="nonzero"/>
			<path id="Vector" d="M16.78 33.15C18.82 34.78 21.33 35.7 24 35.7C27.11 35.7 30.03 34.45 32.24 32.24C34.45 30.03 35.7 27.11 35.7 24C35.7 21.35 34.78 18.84 33.15 16.79C32.89 16.42 32.57 16.08 32.24 15.75L15.75 32.24C16.08 32.57 16.42 32.87 16.78 33.15ZM31.2 18.74C32.31 20.25 32.91 22.07 32.91 24C32.91 26.38 31.98 28.62 30.31 30.31C28.62 31.98 26.38 32.91 24 32.91C22.07 32.91 20.25 32.31 18.74 31.18L31.2 18.74Z" fill="#FFA5A5" fill-opacity="1.000000" fill-rule="nonzero"/>
		</g>
	</g>
</svg>
