<svg width="39" height="37" viewBox="0 0 39 37" fill="none" xmlns="http://www.w3.org/2000/svg">
<path d="M19.5 35.8438C29.5965 35.8438 37.7812 28.0787 37.7812 18.5C37.7812 8.92131 29.5965 1.15625 19.5 1.15625C9.40354 1.15625 1.21875 8.92131 1.21875 18.5C1.21875 28.0787 9.40354 35.8438 19.5 35.8438Z" fill="#C64635"/>
<path d="M19.5 1.15626C14.7882 1.15149 10.2578 2.87927 6.86038 5.97667C5.26036 7.893 4.12145 10.1181 3.52345 12.4961C2.92546 14.874 2.88285 17.3473 3.39862 19.7425C3.91439 22.1377 4.97605 24.397 6.50921 26.3619C8.04236 28.3268 10.0099 29.9499 12.274 31.1173C14.538 32.2847 17.0438 32.9683 19.6156 33.1201C22.1875 33.2719 24.7633 32.8882 27.1624 31.996C29.5615 31.1038 31.7259 29.7246 33.5039 27.9551C35.2819 26.1856 36.6306 24.0687 37.4553 21.7525C37.9614 19.2446 37.8773 16.6615 37.209 14.1879C36.5407 11.7143 35.3046 9.41135 33.5892 7.44361C31.8738 5.47587 29.7214 3.89195 27.2858 2.80506C24.8502 1.71817 22.1916 1.15516 19.5 1.15626Z" fill="#C64635"/>
<path d="M30.8033 10.6375C32.4745 12.8011 33.4175 15.3934 33.5084 18.0743C33.5993 20.7553 32.8339 23.3997 31.3127 25.6607L23.1562 17.9219L30.8033 10.6375Z" fill="#F2F2F2"/>
<path d="M27.0461 7.29365C24.7922 5.92847 22.1738 5.20313 19.4996 5.20312C16.8255 5.20313 14.2071 5.92847 11.9531 7.29365L19.4996 14.4531L27.0461 7.29365Z" fill="#F2F2F2"/>
<path d="M7.68787 25.6595C6.16846 23.4018 5.40286 20.7616 5.49125 18.0843C5.57965 15.407 6.51793 12.8173 8.18329 10.6543L15.8437 17.9219L7.68787 25.6595Z" fill="#F2F2F2"/>
<path d="M11.2305 29.2364C13.6312 30.9002 16.5272 31.7969 19.5003 31.7969C22.4733 31.7969 25.3694 30.9002 27.7701 29.2364L19.5003 21.3906L11.2305 29.2364Z" fill="#F2F2F2"/>
</svg>
