<svg width="51" height="52" viewBox="0 0 51 52" fill="none" xmlns="http://www.w3.org/2000/svg">
<path d="M3.8143 0.217378C3.35076 -0.0654894 2.77494 -0.0726305 2.30554 0.197939C1.83654 0.468905 1.54688 0.974338 1.54688 1.52341V41.336C1.54688 41.8716 1.82329 42.3671 2.27358 42.6424L14.2501 51.783C14.7136 52.0651 15.2898 52.0727 15.7589 51.8021C16.2279 51.5315 16.5175 51.0257 16.5175 50.4766V10.664C16.5175 10.1285 16.2411 9.63295 15.7908 9.35762L3.8143 0.217378ZM12.0232 30.5703C11.1967 30.5703 10.5261 29.8884 10.5261 29.0469C10.5261 28.2054 11.1967 27.5235 12.0232 27.5235C12.8505 27.5235 13.5203 28.2054 13.5203 29.0469C13.5203 29.8884 12.8501 30.5703 12.0232 30.5703Z" fill="#E74C3C"/>
<path d="M42.7981 17.1144C42.3404 16.8034 41.747 16.7752 41.2613 17.0387C40.7747 17.3033 40.4706 17.8194 40.4706 18.382V19.9062H26.9971C26.1694 19.9062 25.5 20.5878 25.5 21.4297V24.4766C25.5 25.3188 26.1694 26 26.9971 26H40.4706V27.5234C40.4706 28.086 40.7747 28.6021 41.2617 28.8672C41.7416 29.129 42.3338 29.106 42.7981 28.7914L48.7864 24.2211C49.2031 23.9382 49.453 23.4621 49.453 22.9535C49.453 22.4445 49.2031 21.9684 48.7864 21.686L42.7981 17.1144Z" fill="#E74C3C"/>
<path d="M22.5058 24.4766V21.4297C22.5058 18.9097 24.5206 16.8594 26.997 16.8594H34.4823V1.52344C34.4823 0.681581 33.8125 0 32.9852 0H8.51953L17.4984 6.8527C18.7456 7.69297 19.5117 9.13628 19.5117 10.6641V42.8594H32.9852C33.8125 42.8594 34.4823 42.1783 34.4823 41.336V29.0469H26.997C24.5206 29.0469 22.5058 26.997 22.5058 24.4766Z" fill="#E74C3C"/>
</svg>
